<?xml version="1.0" encoding="utf-8"?>
<!-- Generator: Adobe Illustrator 25.0.0, SVG Export Plug-In . SVG Version: 6.00 Build 0)  -->
<svg version="1.1" id="Layer_1" xmlns="http://www.w3.org/2000/svg" xmlns:xlink="http://www.w3.org/1999/xlink" x="0px" y="0px"
	 viewBox="0 0 100 100" style="enable-background:new 0 0 100 100;" xml:space="preserve">
<style type="text/css">
	.st0{fill:#E94335;}
	.st1{fill:#FABB05;}
	.st2{fill:#34A753;}
	.st3{fill:#4284F3;}
</style>
<g>
	<path class="st0" d="M83.8,12.8c-4.7,4.7-9.4,9.3-14,14c-0.3,0.3-0.4,0.1-0.7,0c-2.4-1.9-5-3.4-7.8-4.4c-4.1-1.6-8.4-2.1-12.8-1.7
		c-6.1,0.5-11.5,2.7-16.2,6.6c-4.2,3.5-7.2,7.8-9.1,13c-0.1,0.2-0.1,0.3-0.2,0.5L6.3,27.9c0.3-1,0.9-1.9,1.4-2.7
		C14.8,13,25.3,5,39,1.5c4.8-1.2,9.7-1.7,14.6-1.4C65,0.7,75.1,4.8,83.8,12.3C84.1,12.5,84,12.6,83.8,12.8z"/>
	<path class="st1" d="M23,59.3L6.3,72.1c-0.9-1.6-1.6-3.4-2.2-5.2c-2.3-6.3-3.2-12.8-2.9-19.4C1.5,40.8,3.4,34,6.3,27.9L23,40.7
		c-0.4,1.4-0.8,2.8-1,4.2c-0.8,4.7-0.5,9.4,0.9,14C23,59,23,59.2,23,59.3z"/>
	<path class="st2" d="M83.7,87.5c-1.8,1.7-3.7,3.2-5.8,4.6c-5.1,3.4-10.6,5.6-16.6,6.9c-4.9,1-9.8,1.3-14.8,0.8
		c-9.8-0.9-18.5-4.4-26.3-10.4C14.4,84.8,9.8,79.2,6.4,72.5c-0.1-0.1-0.1-0.3-0.2-0.4L23,59.3c0.9,2.5,1.9,4.8,3.4,7
		c4.9,7.2,11.6,11.6,20.3,12.9c6.2,0.9,12.2,0.2,18-2.4c1.1-0.5,2.1-1,3-1.6L83.7,87.5z"/>
	<path class="st3" d="M98.8,52.4c-0.3,7.4-1.8,14.5-5,21.2c-2.4,5.1-5.7,9.6-9.8,13.6c-0.1,0.1-0.2,0.2-0.4,0.3l-16-12.3
		c1.7-1.1,3.3-2.4,4.7-3.9c2.8-3.1,4.5-6.7,5.4-10.7c0.1-0.3,0-0.4-0.3-0.4c-0.1,0-0.3,0-0.4,0c-8.5,0-17,0-25.5,0
		c-0.5,0-0.6-0.1-0.6-0.6c0-6.1,0-12.1,0-18.2c0-0.5,0.1-0.6,0.6-0.6c15.1,0,30.2,0,45.3,0c0.6,0,0.7,0.2,0.9,0.7
		C98.7,45.2,99,48.8,98.8,52.4z"/>
</g>
</svg>
