<?xml version="1.0" encoding="utf-8"?>
<!-- Generator: Adobe Illustrator 25.0.0, SVG Export Plug-In . SVG Version: 6.00 Build 0)  -->
<svg version="1.1" id="Layer_1" xmlns="http://www.w3.org/2000/svg" xmlns:xlink="http://www.w3.org/1999/xlink" x="0px" y="0px"
	 viewBox="0 0 100 100" style="enable-background:new 0 0 100 100;" xml:space="preserve">
<style type="text/css">
	.st0{fill:#2E3192;}
	.st1{fill:#FFFFFF;}
	.st2{fill:#17A2B8;}
</style>
<path class="st0" d="M75,100H25C11.2,100,0,88.8,0,75V25C0,11.2,11.2,0,25,0h50c13.8,0,25,11.2,25,25v50C100,88.8,88.8,100,75,100z"
	/>
<path class="st1" d="M61,18.7H21.7v62.7h12V53H61c6.2,0,11.7-3.3,14.7-8.3c1.6-2.6,2.5-5.7,2.5-8.9C78.2,26.3,70.5,18.7,61,18.7z
	 M61.1,40.9H33.7V30.7h27.4c1.2,0,2.4,0.5,3.2,1.2c0.1,0.1,0.3,0.2,0.4,0.3c0.9,0.9,1.5,2.2,1.5,3.6C66.2,38.6,63.9,40.9,61.1,40.9z
	"/>
<path class="st2" d="M84.3,61.2c0,11.1-9,20.2-20.2,20.2H33.7v-12h30l0.5-0.1c4.5,0,8.1-3.6,8.1-8.1c0-4.5-3.7-8.1-8.1-8.1H61
	c6.2,0,11.7-3.3,14.7-8.3C81.1,48.5,84.3,54.6,84.3,61.2z"/>
</svg>
